Patient4_TMGait_0pt3_03_left_06_EMG.mot
version=1
nRows=26
nColumns=33
inDegrees=no
endheader
time	1LAddLong	2LGlutMax	3LGlutMed	4LIliopsoas	5LSemiMemb	6LBicFemLong	7LRecFem	8LVastMed	9LVastLat	10LGasMed	11LTibAnt	12lTibPost	13LPeroneusLong	14LSol	15LExtDigLong	16LFlexDigLong	17RAddLong	18RGlutMax	19RGlutMed	20RIliopsoas	21RSemiMemb	22RBicFemLong	23RRecFem	24RVastMed	25RVastLat	26RGasMed	27RTibAnt	28RTibPost	29RPeroneusLong	30RSol	31RExtDigLong	32RFlexDigLong
10.95	0.053711	-0.02182	-0.016327	0.011749	0.12405	-0.085297	0.027466	0.009918	0.041809	0.60638	-0.000916	0.037689	0.4718	0.003052	0.029907	-0.009308	0.011292	-0.17136	-0.14145	-0.010834	0.002441	-0.027161	0.026703	-0.061798	-0.012207	0.00412	0.028839	0.035248	-0.054169	0.13229	0.005188	-0.012207
10.951	0.13016	-0.078888	-0.018311	0.031738	0.039978	0.23636	0.00473	-0.003357	-0.087891	0.74875	0.008392	0.033875	0.10407	-0.057678	0.17593	-0.005188	0.011139	-0.14023	-0.15305	-0.021667	0.005188	-0.0177	0.037079	-0.084991	-0.032349	0.012207	0.038757	-0.016785	0.049133	0.13931	0.006561	-0.01358
10.952	0.081177	-0.053711	-0.000763	0.010376	-0.018311	0.35187	0.03006	-0.00946	-0.11063	0.47211	0.005188	0.032196	-0.15015	-0.059204	0.13519	-0.000763	0.022125	-0.12131	-0.12283	-0.02594	0.002289	-0.014038	0.096436	-0.067749	-0.033722	0.028992	0.028381	-0.022736	0.18234	-0.1387	0.002289	-0.020142
10.953	-0.039978	0.015411	-0.007172	-0.001678	-0.026245	0.2388	0.015717	-0.001526	-0.09491	0.4776	0.002136	0.035706	0.1947	-0.22064	-0.011597	0.00946	0.003815	-0.16556	-0.095978	-0.037231	0.005493	-0.019226	0.084381	-0.063934	-0.040436	0.023346	0.004883	0.013428	0.12909	-0.36743	0.004883	-0.019531
10.954	-0.007935	0.036011	-0.025787	-0.00061	-0.014496	0.004578	-0.00946	-0.002289	-0.057678	0.31784	-0.013123	0.028381	0.23407	-0.38559	-0.027313	-0.013123	0.001526	-0.17883	-0.020294	0.000305	-0.002747	-0.010986	0.15762	-0.11032	-0.016785	0.011597	0.017548	-0.31937	-0.11536	-0.47684	-0.003052	-0.014191
10.955	0.010223	0.075836	-0.049591	0.007172	-0.013275	0.10269	-0.028687	-0.01236	-0.029449	0.16846	0.005798	0.033112	-0.010071	-0.48233	0.061493	-0.009766	0.006866	-0.16373	-0.027924	0.014038	0.001984	-0.015259	0.20294	-0.048065	0.020752	0.007629	0.028839	-0.24277	-0.53207	-0.15823	0.005341	-0.007629
10.956	0.037384	0.11368	-0.079956	0.02121	0.028229	0.0383	0.008087	-0.000916	0.005951	-0.51468	0.023499	0.041504	-0.39352	-0.40863	0.21668	-0.00885	0.000305	-0.1831	-0.068665	0.031433	-0.000305	-0.003815	0.24109	-0.060272	0.001831	-0.025787	0.002441	0.025482	-0.90347	-0.023651	0.001831	-0.018768
10.957	0.024261	0.15518	-0.12238	0.003967	0.011597	-0.2594	0.045624	0.006561	-0.002136	-0.42129	0.027313	0.039978	-0.3038	-0.17319	0.15457	-0.007629	0.00412	-0.16144	-0.000153	0.002136	0.000153	-0.002441	0.14252	-0.062561	0.00946	-0.045776	-0.000763	-0.15564	-0.93552	-0.3215	0.004425	-0.019531
10.958	0.005951	0.19623	-0.12238	0.008545	-0.013123	-0.10391	0.053253	0.00473	-0.019684	-0.71137	0.037384	0.062714	-0.036469	0.19867	0.056152	-0.036316	0.003815	-0.112	0.18433	-0.001831	0.008698	0.004425	0.13855	-0.084686	0.031281	-0.04425	-0.013275	-0.1062	-0.42679	-0.80521	0.005188	-0.021057
10.959	-0.011749	0.17563	-0.071564	0.007172	-0.050354	0.032806	0.046844	0.009918	-0.01358	-0.78629	0.02594	0.057526	-0.40146	0.37979	0.070801	0.077515	0.01297	-0.097351	-0.17075	0.007172	-0.000763	0.009003	0.29465	-0.11215	-0.058441	-0.02594	-0.020905	0.29617	0.23712	-1.1409	0.001831	-0.01709
10.96	-0.007019	0.086212	0.018921	0.001678	-0.055695	0.036926	0.060883	0.011139	0.04303	-0.53894	-0.007324	0.057068	-0.23911	0.16861	-0.063019	-0.056	0.018921	-0.1651	-0.17395	-0.015411	0.005493	-0.002136	0.16556	-0.2066	-0.18662	0.010223	-0.022888	0.41184	0.52246	-0.050507	0.003052	-0.010223
10.961	-0.003357	0.11856	-0.006104	0.003357	0.002899	0.06134	0.074921	0.009918	0.031128	-0.40741	-0.002136	0.065155	0.43823	0.094299	-0.13825	-0.09491	0.021973	-0.083313	-0.16968	0.01709	0.001678	0.006104	-0.099182	-0.28976	-0.2713	-0.002441	0.013885	-0.43076	0.1091	1.4815	0.000153	-0.006866
10.962	-0.006714	0.15762	0.048828	0.00061	-0.054932	0.063019	0.06897	0.003967	0.041656	-0.37354	-0.000305	0.05249	0.83756	0.060425	-0.26138	0.27481	0.00946	-0.045319	-0.10773	0.005951	0.005493	0.006866	-0.10529	-0.26123	-0.24262	-0.054016	0.017548	-0.74783	0.54092	1.6306	-0.001373	-0.000916
10.963	0.010529	0.19333	0.044708	-0.00061	-0.057983	-0.008087	0.073853	-0.003357	-0.035553	-0.37155	-0.006561	0.050507	0.61905	-0.052185	-0.23483	-0.014496	0.011444	-0.11154	-0.11398	-0.051575	0.004883	0.009155	-0.005951	-0.084991	-0.20371	-0.057983	-0.003967	-0.28976	0.93338	1.0687	-0.000458	-0.013428
10.964	0.020142	0.20111	0.15274	-0.007935	-0.070038	0.000305	0.07782	-0.001678	-0.023804	-0.15808	-0.005188	0.045471	-0.12894	0.19058	-0.036316	-0.15839	0.010376	-0.14694	-0.10803	-0.12955	0.010681	0.006409	-0.06958	-0.10712	-0.22903	0.011749	0.000763	0.80597	0.90775	0.53238	0.000305	-0.00885
10.965	0.003662	0.24429	0.13916	0.003052	-0.037689	0.020752	0.076752	0.001221	0.090485	0.087128	-0.016174	0.034637	-0.31464	0.22293	0.041962	-0.047607	0.001068	-0.10696	-0.10574	-0.063171	0.023499	0.008698	-0.215	-0.04303	-0.11017	0.036926	-0.002289	0.52506	0.33768	0.22568	-0.000458	-0.016785
10.966	-0.02243	0.29282	0.085907	0.010529	-0.007172	0.078735	0.13382	0.012207	0.095367	-0.00885	-0.026093	0.031433	-0.10376	0.15305	0.046082	-0.007782	-0.009766	-0.019379	-0.41855	0.037842	0.017853	0.032043	-0.44647	0.014191	0.14969	0.0354	0.006256	0.30075	0.18021	-0.35507	0.001984	-0.006866
10.967	-0.049896	0.2356	0.028687	0.001678	-0.045471	0.17425	0.15259	0.02243	0.074615	-0.17868	-0.020294	0.019226	0.6163	-0.070648	0.030975	-0.029755	-0.007782	-0.066681	-0.31113	0.085297	0.022125	0.019531	-0.55161	0.1059	0.44083	0.036926	0.005493	0.067444	0.17639	-0.16968	0.011139	-0.002441
10.968	-0.058899	0.21347	-0.005188	0.003204	-0.039978	0.23041	0.19363	0.021973	0.05127	-0.08728	-0.05249	0.02533	0.62103	-0.22278	0.11963	-0.010529	-0.002441	-0.097198	-0.13382	0.074005	0.012512	0.015259	-0.42007	0.041199	0.44891	0.034027	0.005188	-0.27252	0.083618	0.30167	0.002441	-0.002899
10.969	-0.059357	0.16159	0.034027	-0.000305	-0.089417	0.1828	0.17303	0.019531	0.027313	0.096588	-0.048523	0.036621	-0.19852	-0.27679	0.14725	-0.000305	0.01358	-0.046844	0.1442	0.005035	-0.006714	-0.022583	-0.23956	0.029297	0.26138	0.015564	0.011597	0.043488	0.1918	0.20065	0.000153	-0.018005
10.97	-0.038605	0.15213	0.023651	-0.003052	-0.17975	-0.10605	0.12054	0.016785	-0.035248	0.016479	-0.036316	0.043488	-0.20599	-0.12604	0.078125	0.002136	0.00885	-0.045166	-0.16159	0.034332	-0.014343	-0.042877	-0.10193	0.045471	0.13397	0.028229	0.041046	0.15274	0.1506	0.13367	0.001984	-0.014343
10.971	0.003204	0.11307	0.000305	0.005341	-0.12009	-0.27924	0.07431	0.009003	-0.12634	0.18936	-0.005951	0.047913	-0.12024	-0.039368	0.064087	0.009766	0.011597	-0.014954	-0.091248	0.041199	-0.022583	-0.017548	-0.067139	0.034332	0.066986	0.036469	0.028839	-0.61386	-0.18631	-0.077209	0.002899	-0.019226
10.972	0.021667	0.098419	-0.028992	0.016785	-0.003662	-0.25696	0.069885	-0.007782	-0.21225	0.16419	0.002136	0.046387	-0.061798	-0.081024	-0.059814	0.007172	0.016022	-0.040131	-0.041962	-0.089722	-0.018463	-0.031738	-0.006104	-0.045166	0.035095	0.02594	0.022736	0.3392	-0.74799	-0.23727	-0.002136	-0.016327
10.973	0.017853	0.12253	0.005646	-0.004272	0.070648	-0.098114	0.032196	-0.003357	-0.23651	0.001678	0.007782	0.048523	-0.053558	-0.39093	-0.090485	0.005035	0.00946	-0.008698	-0.046692	-0.12009	-0.008087	-0.012665	-0.022125	-0.027618	0.036316	-0.000153	0.009918	0.093231	-0.86899	-0.27847	-0.002441	-0.005493
10.974	0.012207	0.12436	-0.013733	-0.01236	0.10452	0.023499	0.045776	-0.006104	-0.16586	0.062561	0.019989	0.050354	-0.18158	-0.48706	-0.079803	0.001831	0.017395	-0.037994	-0.015411	-0.11917	-0.005951	-0.027161	-0.003052	-0.077209	0.036316	-0.023041	0.000763	-0.5452	-0.58227	-0.19241	-0.00061	-0.007629
10.975	0.029602	0.15503	-0.035706	-0.001068	0.10284	0.1152	-0.028381	-0.000153	-0.032806	-0.31586	0.039368	0.027161	-0.10223	-0.1886	-0.083771	0.011902	0.017548	-0.077209	-0.028992	-0.018921	0.002594	-0.000153	-0.023499	-0.071259	0.013123	-0.047913	-0.022125	-0.11856	0.044861	-0.25207	0.002747	-0.023499
